<svg width="69" height="69" xmlns="http://www.w3.org/2000/svg"><path d="M55.443 59.544V8.706C62.698 14.8 67.32 23.931 67.32 34.126c0 10.193-4.622 19.324-11.877 25.418m-42.316.269h.15c8.57 0 16.173-4.208 20.848-10.664 4.676 6.456 12.28 10.664 20.848 10.664h.15C49.399 64.5 42.087 67.32 34.127 67.32c-7.96 0-15.274-2.819-20.999-7.507M.931 34.125c0-10.194 4.622-19.324 11.876-25.418v50.837C5.553 53.45.931 44.319.931 34.125m38.062 0a25.516 25.516 0 0 0-4.298-14.205c4.403-6.252 11.627-10.386 19.809-10.538v49.487c-8.182-.153-15.406-4.287-19.81-10.539a25.516 25.516 0 0 0 4.3-14.205M33.555 48.33c-4.403 6.252-11.627 10.386-19.809 10.539V9.382c8.182.152 15.406 4.286 19.809 10.538a25.516 25.516 0 0 0-4.299 14.205 25.517 25.517 0 0 0 4.299 14.205m-3.36-14.205a24.58 24.58 0 0 1 3.93-13.36 24.576 24.576 0 0 1 3.928 13.36c0 4.918-1.443 9.504-3.929 13.36a24.58 24.58 0 0 1-3.928-13.36M55.123 8.438h-.15c-8.569 0-16.172 4.207-20.848 10.663C29.45 12.645 21.846 8.438 13.277 8.438h-.15C18.853 3.749 26.165.93 34.126.93c7.96 0 15.272 2.818 20.997 7.507M34.126 0C15.309 0 0 15.308 0 34.125S15.309 68.25 34.126 68.25c18.816 0 34.124-15.308 34.124-34.125S52.942 0 34.126 0" fill="#fff" fill-rule="evenodd"/></svg>