<svg width="149" height="136" xmlns="http://www.w3.org/2000/svg"><g stroke="#FEFEFE" stroke-width=".51" fill="none" fill-rule="evenodd"><path d="M60 124.682c-13.765 0-24.923-11.194-24.923-25 0-13.808 11.158-25 24.923-25v50Zm-44 0c13.763 0 24.923-11.194 24.923-25 0-13.808-11.16-25-24.923-25v50ZM135 58.682c-13.765 0-24.923-11.194-24.923-25 0-13.808 11.158-25 24.923-25v50Zm-44 0c13.763 0 24.923-11.194 24.923-25 0-13.808-11.16-25-24.923-25v50ZM86 122.682c0-14.392 11.865-26.058 26.5-26.058S139 108.29 139 122.682H86Zm0-46c0 14.39 11.865 26.055 26.5 26.055S139 91.071 139 76.682H86ZM12 56.682c0-14.392 11.865-26.058 26.5-26.058S65 42.29 65 56.682H12Zm0-46c0 14.39 11.865 26.055 26.5 26.055S65 25.071 65 10.682H12Z"/></g></svg>